<svg width="22" height="18" viewBox="0 0 22 18" fill="none" xmlns="http://www.w3.org/2000/svg">
<path d="M20.9934 4.14087V14.1378C20.9934 14.8006 20.73 15.4363 20.2613 15.905C19.7926 16.3737 19.157 16.637 18.4941 16.637H3.49874C2.8359 16.637 2.20022 16.3737 1.73152 15.905C1.26282 15.4363 0.999512 14.8006 0.999512 14.1378V4.14087" stroke="#1678F2" stroke-width="1.67948" stroke-linecap="round" stroke-linejoin="round"/>
<path d="M20.9934 4.14108C20.9934 3.47824 20.73 2.84255 20.2613 2.37385C19.7926 1.90516 19.157 1.64185 18.4941 1.64185H3.49874C2.8359 1.64185 2.20022 1.90516 1.73152 2.37385C1.26282 2.84255 0.999512 3.47824 0.999512 4.14108L9.67184 9.55607C10.069 9.80433 10.528 9.93596 10.9964 9.93596C11.4648 9.93596 11.9238 9.80433 12.321 9.55607L20.9934 4.14108Z" stroke="#1678F2" stroke-width="1.67948" stroke-linecap="round" stroke-linejoin="round"/>
</svg>
