<svg width="190" height="72" viewBox="0 0 190 72" fill="none" xmlns="http://www.w3.org/2000/svg">
<g filter="url(#filter0_di_273_179)">
<circle cx="154.301" cy="31.7364" r="13.7364" fill="url(#paint0_linear_273_179)"/>
</g>
<rect x="151.315" y="23.9724" width="5.97235" height="15.5281" rx="0.895852" fill="white"/>
<rect x="162.065" y="28.7502" width="5.97235" height="15.5281" rx="0.895852" transform="rotate(90 162.065 28.7502)" fill="white"/>
<path d="M0.648 36.6219H3.708L10.764 58.2939H10.8L17.748 36.6219H20.808L12.636 61.174H8.82L0.648 36.6219ZM36.1637 60.742C35.6117 60.91 35.0357 61.054 34.4357 61.174C33.8597 61.294 33.2117 61.402 32.4917 61.498C31.7957 61.594 31.0637 61.642 30.2957 61.642C29.0957 61.642 27.9797 61.474 26.9477 61.138C25.9157 60.802 25.0157 60.262 24.2477 59.518C23.4797 58.7739 22.8677 57.814 22.4117 56.638C21.9797 55.4379 21.7637 53.9739 21.7637 52.2459C21.7637 50.6859 21.9797 49.3179 22.4117 48.1419C22.8437 46.9419 23.4317 45.9459 24.1757 45.1539C24.9437 44.3379 25.8317 43.7259 26.8397 43.3179C27.8717 42.9099 28.9877 42.7059 30.1877 42.7059C31.3637 42.7059 32.3837 42.9339 33.2477 43.3899C34.1117 43.8459 34.8197 44.4699 35.3717 45.2619C35.9477 46.0299 36.3677 46.9419 36.6317 47.9979C36.9197 49.0299 37.0637 50.1219 37.0637 51.2739L36.5237 52.8579H24.8957C24.8957 53.602 24.9917 54.3459 25.1837 55.0899C25.3757 55.8339 25.6997 56.5059 26.1557 57.1059C26.6357 57.7059 27.2477 58.1979 27.9917 58.582C28.7597 58.942 29.7077 59.122 30.8357 59.122C31.5557 59.122 32.2157 59.086 32.8157 59.014C33.4157 58.918 33.9317 58.822 34.3637 58.726C34.8197 58.6059 35.2397 58.4739 35.6237 58.33L36.1637 60.742ZM34.0757 50.5539C34.0757 50.3859 34.0397 50.0139 33.9677 49.438C33.8957 48.8619 33.7277 48.2619 33.4637 47.6379C33.1997 47.0139 32.7917 46.4619 32.2397 45.9819C31.6877 45.4779 30.9557 45.2259 30.0437 45.2259C29.0357 45.2259 28.2077 45.4419 27.5597 45.8739C26.9117 46.2819 26.3957 46.7739 26.0117 47.35C25.6277 47.9259 25.3637 48.5139 25.2197 49.1139C25.0757 49.714 25.0037 50.1939 25.0037 50.5539H34.0757ZM41.0186 45.9819C41.0186 45.4299 40.9586 44.5659 40.8386 43.3899L43.5026 43.0299L43.7906 45.6579H43.8266C44.2586 45.1059 44.6786 44.6259 45.0866 44.2179C45.4946 43.8099 45.9146 43.4619 46.3466 43.174C46.8026 42.8619 47.2346 42.7059 47.6426 42.7059C48.1946 42.682 48.9626 42.742 49.9466 42.8859L49.2986 45.6579C48.5066 45.5139 47.9546 45.4539 47.6426 45.4779C47.2346 45.4779 46.8026 45.6699 46.3466 46.0539C45.8906 46.4379 45.4946 46.8459 45.1586 47.2779C44.7266 47.8059 44.3066 48.4059 43.8986 49.0779V61.174H41.0186V45.9819ZM53.1115 43.0299L55.9915 42.7059V61.174H53.1115V43.0299ZM52.6435 37.8819C52.6435 37.3299 52.8235 36.8739 53.1835 36.5139C53.5675 36.1299 54.0355 35.9379 54.5875 35.9379C55.1635 35.9379 55.6435 36.1299 56.0275 36.5139C56.4355 36.8739 56.6395 37.3299 56.6395 37.8819C56.6395 38.4339 56.4355 38.9019 56.0275 39.2859C55.6435 39.6459 55.1635 39.8259 54.5875 39.8259C54.0355 39.8259 53.5675 39.6459 53.1835 39.2859C52.8235 38.9019 52.6435 38.4339 52.6435 37.8819ZM78.4423 40.0779C77.8423 39.8859 77.2063 39.7179 76.5343 39.5739C75.8623 39.4059 75.1183 39.2739 74.3023 39.178C73.5103 39.0579 72.6703 38.9979 71.7823 38.9979C70.3423 38.9979 69.1183 39.3099 68.1103 39.9339C67.1023 40.5579 66.2743 41.3619 65.6263 42.346C65.0023 43.3059 64.5463 44.3859 64.2583 45.5859C63.9703 46.7859 63.8263 47.9739 63.8263 49.1499C63.8263 50.6379 64.0303 51.9939 64.4383 53.2179C64.8703 54.4179 65.4463 55.45 66.1663 56.314C66.9103 57.154 67.7623 57.802 68.7223 58.258C69.7063 58.714 70.7383 58.942 71.8183 58.942C72.8263 58.942 73.7503 58.894 74.5903 58.798C75.4303 58.678 76.1503 58.558 76.7503 58.438C77.4463 58.294 78.0703 58.126 78.6223 57.934L79.2343 60.49C78.5863 60.706 77.8663 60.898 77.0743 61.066C76.4023 61.21 75.6223 61.342 74.7343 61.462C73.8463 61.582 72.8743 61.642 71.8183 61.642C69.9223 61.642 68.2543 61.33 66.8143 60.706C65.3983 60.082 64.2103 59.218 63.2503 58.114C62.3143 56.986 61.6063 55.666 61.1263 54.1539C60.6463 52.618 60.4063 50.938 60.4063 49.1139C60.4063 47.0259 60.6943 45.1899 61.2703 43.6059C61.8463 41.9979 62.6383 40.6539 63.6463 39.5739C64.6543 38.4939 65.8543 37.6779 67.2463 37.1259C68.6383 36.5739 70.1623 36.2979 71.8183 36.2979C72.8263 36.2979 73.7623 36.3579 74.6263 36.4779C75.5143 36.5739 76.3183 36.7059 77.0383 36.8739C77.7823 37.0419 78.4663 37.2219 79.0903 37.4139L78.4423 40.0779ZM93.1095 52.8579C92.6295 52.882 92.1735 52.9059 91.7415 52.9299C91.3095 52.9539 90.8775 52.9899 90.4455 53.0379C90.0375 53.0619 89.6655 53.0979 89.3295 53.146C87.6015 53.3619 86.3775 53.7459 85.6575 54.2979C84.9375 54.8259 84.5775 55.5939 84.5775 56.602C84.5775 57.4419 84.8295 58.078 85.3335 58.51C85.8615 58.918 86.5455 59.122 87.3855 59.122C88.5375 59.122 89.5575 58.93 90.4455 58.5459C91.3575 58.138 92.2455 57.61 93.1095 56.9619V52.8579ZM93.0735 59.482C91.9455 60.13 90.8895 60.658 89.9055 61.066C88.9455 61.45 87.9015 61.642 86.7735 61.642C85.1655 61.642 83.8815 61.258 82.9215 60.49C81.9855 59.698 81.5175 58.402 81.5175 56.602C81.5175 55.6659 81.7575 54.8499 82.2375 54.1539C82.7175 53.4579 83.3415 52.8819 84.1095 52.4259C84.9015 51.9459 85.7895 51.5739 86.7735 51.3099C87.7575 51.0459 88.7655 50.8779 89.7975 50.8059C90.2295 50.7579 90.7935 50.7219 91.4895 50.6979C92.1855 50.6499 92.7255 50.6139 93.1095 50.59C93.1095 49.7499 93.0855 49.0059 93.0375 48.3579C92.9895 47.686 92.8455 47.1219 92.6055 46.6659C92.3655 46.1859 92.0055 45.8259 91.5255 45.5859C91.0695 45.3459 90.4095 45.2259 89.5455 45.2259C88.8495 45.2259 88.1775 45.2739 87.5295 45.3699C86.8815 45.4419 86.3055 45.5259 85.8015 45.6219C85.2015 45.7419 84.6495 45.8739 84.1455 46.0179L83.5695 43.5339C84.1695 43.3899 84.8175 43.2579 85.5135 43.1379C86.1135 43.0179 86.8095 42.9219 87.6015 42.85C88.3935 42.7539 89.2455 42.7059 90.1575 42.7059C91.3815 42.7059 92.3655 42.8859 93.1095 43.2459C93.8775 43.6059 94.4655 44.0979 94.8735 44.7219C95.3055 45.3219 95.5935 46.0179 95.7375 46.8099C95.9055 47.5779 95.9895 48.3939 95.9895 49.2579V57.8979C95.9895 58.2339 95.9895 58.5939 95.9895 58.978C96.0135 59.338 96.0375 59.698 96.0615 60.058C96.1095 60.418 96.1575 60.79 96.2055 61.174L93.4335 61.462L93.0735 59.482ZM101.065 34.2099L103.945 33.8859V61.174H101.065V34.2099ZM109.151 46.3419C109.151 45.5259 109.079 44.5419 108.935 43.3899L111.635 43.0299L112.031 45.2979C112.679 44.8179 113.315 44.3979 113.939 44.0379C114.563 43.6779 115.235 43.3659 115.955 43.1019C116.675 42.8379 117.407 42.7059 118.151 42.7059C119.351 42.7059 120.299 42.9219 120.995 43.3539C121.691 43.7619 122.207 44.4699 122.543 45.4779C123.527 44.7819 124.547 44.1459 125.603 43.5699C126.683 42.9939 127.799 42.7059 128.951 42.7059C129.839 42.7059 130.595 42.8259 131.219 43.0659C131.843 43.2819 132.347 43.6539 132.731 44.1819C133.115 44.7099 133.391 45.4059 133.559 46.2699C133.727 47.1339 133.811 48.2139 133.811 49.51V61.174H130.931V49.8339C130.931 49.1139 130.919 48.4779 130.895 47.9259C130.871 47.3499 130.787 46.8699 130.643 46.4859C130.499 46.0779 130.259 45.7659 129.923 45.5499C129.611 45.3339 129.155 45.2259 128.555 45.2259C128.003 45.2259 127.475 45.3099 126.971 45.4779C126.491 45.6219 125.987 45.8379 125.459 46.1259C124.931 46.4139 124.115 47.0019 123.011 47.8899V61.174H120.131V49.8339C120.131 49.1139 120.119 48.4779 120.095 47.9259C120.071 47.3499 119.987 46.8699 119.843 46.4859C119.699 46.0779 119.459 45.7659 119.123 45.5499C118.811 45.3339 118.355 45.2259 117.755 45.2259C117.131 45.2259 116.483 45.3579 115.811 45.6219C115.139 45.8859 114.503 46.1979 113.903 46.5579C113.303 46.9179 112.679 47.3379 112.031 47.8179V61.174H109.151V46.3419Z" fill="url(#paint1_linear_273_179)"/>
<defs>
<filter id="filter0_di_273_179" x="118.815" y="0.829495" width="70.9714" height="70.9714" filterUnits="userSpaceOnUse" color-interpolation-filters="sRGB">
<feFlood flood-opacity="0" result="BackgroundImageFix"/>
<feColorMatrix in="SourceAlpha" type="matrix" values="0 0 0 0 0 0 0 0 0 0 0 0 0 0 0 0 0 0 127 0" result="hardAlpha"/>
<feOffset dy="4.5788"/>
<feGaussianBlur stdDeviation="10.8747"/>
<feComposite in2="hardAlpha" operator="out"/>
<feColorMatrix type="matrix" values="0 0 0 0 0.0862745 0 0 0 0 0.470588 0 0 0 0 0.94902 0 0 0 0.2 0"/>
<feBlend mode="normal" in2="BackgroundImageFix" result="effect1_dropShadow_273_179"/>
<feBlend mode="normal" in="SourceGraphic" in2="effect1_dropShadow_273_179" result="shape"/>
<feColorMatrix in="SourceAlpha" type="matrix" values="0 0 0 0 0 0 0 0 0 0 0 0 0 0 0 0 0 0 127 0" result="hardAlpha"/>
<feOffset dy="4.5788"/>
<feGaussianBlur stdDeviation="2.2894"/>
<feComposite in2="hardAlpha" operator="arithmetic" k2="-1" k3="1"/>
<feColorMatrix type="matrix" values="0 0 0 0 0 0 0 0 0 0 0 0 0 0 0 0 0 0 0.12 0"/>
<feBlend mode="normal" in2="shape" result="effect2_innerShadow_273_179"/>
</filter>
<linearGradient id="paint0_linear_273_179" x1="138.426" y1="7.22635" x2="200.866" y2="13.9441" gradientUnits="userSpaceOnUse">
<stop stop-color="#FE7235"/>
<stop offset="1" stop-color="#FE7235"/>
</linearGradient>
<linearGradient id="paint1_linear_273_179" x1="-10.6647" y1="10.3112" x2="271.191" y2="106.927" gradientUnits="userSpaceOnUse">
<stop stop-color="#FE7235"/>
<stop offset="1" stop-color="#FE7235"/>
</linearGradient>
</defs>
</svg>
