<svg width="20" height="23" viewBox="0 0 20 23" fill="none" xmlns="http://www.w3.org/2000/svg">
<path d="M18.2266 10.3507C18.2266 16.8033 11.6176 20.7786 10.2442 21.5358C10.1681 21.5778 10.0826 21.5998 9.99573 21.5998C9.90884 21.5998 9.82336 21.5778 9.74728 21.5358C8.3728 20.7786 1.76587 16.8033 1.76587 10.3507C1.76587 5.20675 4.85226 1.60596 9.99625 1.60596C15.1402 1.60596 18.2266 5.20675 18.2266 10.3507Z" stroke="#1678F2" stroke-width="1.67948" stroke-linecap="round" stroke-linejoin="round"/>
<path d="M5.8811 9.83614C5.8811 10.9276 6.31467 11.9743 7.08641 12.746C7.85816 13.5178 8.90488 13.9513 9.99629 13.9513C11.0877 13.9513 12.1344 13.5178 12.9062 12.746C13.6779 11.9743 14.1115 10.9276 14.1115 9.83614C14.1115 8.74472 13.6779 7.69801 12.9062 6.92626C12.1344 6.15451 11.0877 5.72095 9.99629 5.72095C8.90488 5.72095 7.85816 6.15451 7.08641 6.92626C6.31467 7.69801 5.8811 8.74472 5.8811 9.83614V9.83614Z" stroke="#1678F2" stroke-width="1.67948" stroke-linecap="round" stroke-linejoin="round"/>
</svg>
