<svg width="24" height="25" viewBox="0 0 24 25" fill="none" xmlns="http://www.w3.org/2000/svg">
<path fill-rule="evenodd" clip-rule="evenodd" d="M12.6028 14.5482C11.1008 14.5482 9.88246 13.3306 9.88246 11.8279C9.88246 11.0665 10.1941 10.3802 10.6982 9.88569C10.8853 9.70211 10.8882 9.40157 10.7046 9.21443C10.521 9.02729 10.2205 9.02441 10.0333 9.208C9.35501 9.87346 8.93311 10.801 8.93311 11.8279C8.93311 13.8551 10.5766 15.4976 12.6028 15.4976C13.6287 15.4976 14.5572 15.0757 15.2227 14.3973C15.4063 14.2102 15.4034 13.9096 15.2162 13.7261C15.0291 13.5425 14.7286 13.5453 14.545 13.7325C14.0505 14.2365 13.3633 14.5482 12.6028 14.5482Z" fill="#677185"/>
<path fill-rule="evenodd" clip-rule="evenodd" d="M5.0767 15.7578C6.6023 17.6313 9.02459 19.5557 12.5207 19.5557C14.8919 19.5557 16.7793 18.6681 18.2268 17.51C18.4293 17.348 18.4612 17.0537 18.298 16.8527C18.1348 16.6517 17.8383 16.62 17.6358 16.782C16.3211 17.8338 14.6363 18.6207 12.5207 18.6207C9.41441 18.6207 7.23483 16.9208 5.80918 15.1701C5.0974 14.296 4.58302 13.4196 4.24666 12.7609C4.07876 12.4322 3.95598 12.1592 3.87573 11.9699C3.85577 11.9228 3.83844 11.8809 3.82373 11.8446C3.85966 11.7607 3.91021 11.6463 3.97566 11.507C4.12595 11.1869 4.35425 10.7362 4.66388 10.2192C5.28517 9.18184 6.22367 7.89497 7.50155 6.85795C7.70291 6.69454 7.7327 6.40003 7.56808 6.20015C7.40346 6.00026 7.10678 5.97069 6.90541 6.1341C5.51354 7.26363 4.50879 8.64861 3.85428 9.74144C3.52602 10.2896 3.28327 10.7685 3.122 11.1119C3.04131 11.2837 2.98088 11.4219 2.9402 11.5182C2.91986 11.5664 2.90444 11.6041 2.8939 11.6303C2.88863 11.6434 2.88457 11.6537 2.88173 11.6609L2.87836 11.6696L2.87736 11.6722L2.87702 11.673L2.8769 11.6734C2.87685 11.6735 2.8768 11.6736 3.317 11.8397C2.87338 11.9966 2.87345 11.9968 2.87353 11.997L2.87375 11.9976L2.87436 11.9993L2.8763 12.0047C2.87792 12.0091 2.88019 12.0152 2.88311 12.0231C2.88896 12.0387 2.89742 12.061 2.90854 12.0896C2.93079 12.1468 2.96369 12.2289 3.00761 12.3325C3.09541 12.5396 3.22743 12.8329 3.40657 13.1837C3.76427 13.8841 4.31286 14.8198 5.0767 15.7578ZM3.317 11.8397L2.87338 11.9966C2.83582 11.892 2.83704 11.7775 2.8768 11.6736L3.317 11.8397Z" fill="#677185"/>
<path fill-rule="evenodd" clip-rule="evenodd" d="M18.8325 16.0563C19.0246 16.2265 19.3199 16.2103 19.492 16.0202C20.3953 15.0221 21.0435 13.9827 21.4656 13.195C21.677 12.8004 21.8328 12.467 21.9362 12.2306C21.988 12.1124 22.0268 12.0184 22.0529 11.9529C22.066 11.9202 22.0759 11.8946 22.0828 11.8767C22.0862 11.8677 22.0888 11.8607 22.0907 11.8557L22.093 11.8496L22.0937 11.8477L22.0939 11.8471L22.094 11.8468C22.094 11.8467 22.0941 11.8466 21.655 11.6892C22.0916 11.5252 22.0915 11.525 22.0914 11.5247L22.0906 11.5225L22.0885 11.5173C22.0868 11.513 22.0845 11.5069 22.0814 11.4991C22.0752 11.4837 22.0663 11.4615 22.0546 11.4332C22.0311 11.3765 21.9965 11.2948 21.9504 11.1918C21.8584 10.9859 21.7206 10.6941 21.5353 10.3451C21.1652 9.64805 20.6026 8.71685 19.8326 7.78333C18.297 5.92188 15.8902 3.99965 12.506 3.99965C10.9797 3.99965 9.64712 4.39256 8.50381 4.99664C8.27629 5.11686 8.19036 5.39676 8.31189 5.62183C8.43341 5.8469 8.71636 5.93191 8.94388 5.81169C9.96596 5.27166 11.1486 4.92368 12.506 4.92368C15.4957 4.92368 17.6634 6.61522 19.1089 8.36753C19.8293 9.2409 20.3589 10.1166 20.7083 10.7747C20.8827 11.1033 21.0115 11.3761 21.0961 11.5655C21.1176 11.6134 21.1361 11.6559 21.1519 11.6927C21.1322 11.7401 21.108 11.7974 21.0791 11.8634C20.984 12.0805 20.8388 12.3918 20.6403 12.7623C20.2425 13.5047 19.6351 14.4767 18.796 15.4039C18.624 15.594 18.6403 15.8861 18.8325 16.0563ZM21.655 11.6892L22.0916 11.5252C22.1313 11.6286 22.1322 11.7426 22.0941 11.8466L21.655 11.6892Z" fill="#677185"/>
<path fill-rule="evenodd" clip-rule="evenodd" d="M15.4722 12.7855C15.715 12.8295 15.945 12.6532 15.9858 12.3917C16.0172 12.1912 16.035 11.9837 16.035 11.7698C16.035 9.72028 14.4922 8.05774 12.588 8.05774C12.3894 8.05774 12.1968 8.07692 12.0106 8.11067C11.7678 8.15469 11.6041 8.40236 11.6449 8.66387C11.6858 8.92538 11.9158 9.1017 12.1586 9.05768C12.2999 9.03206 12.4429 9.01807 12.588 9.01807C13.9995 9.01807 15.1433 10.2505 15.1433 11.7698C15.1433 11.9261 15.1303 12.0801 15.1065 12.2323C15.0656 12.4938 15.2293 12.7415 15.4722 12.7855Z" fill="#677185"/>
<path fill-rule="evenodd" clip-rule="evenodd" d="M8.93311 11.8279C8.93311 13.855 10.5757 15.4976 12.6028 15.4976C13.6297 15.4976 14.5572 15.0757 15.2227 14.3973C15.4063 14.2102 15.4034 13.9096 15.2162 13.7261C15.0291 13.5425 14.7286 13.5453 14.545 13.7325C14.0505 14.2365 13.3641 14.5482 12.6028 14.5482C11.1 14.5482 9.88246 13.3307 9.88246 11.8279C9.88246 11.0673 10.1942 10.3801 10.6982 9.88569C10.8853 9.70211 10.8882 9.40157 10.7046 9.21443C10.521 9.02729 10.2205 9.02441 10.0333 9.208C9.35496 9.87351 8.93311 10.8019 8.93311 11.8279Z" fill="#677185"/>
<path fill-rule="evenodd" clip-rule="evenodd" d="M20.6341 19.7586C20.8147 19.5781 20.8147 19.2854 20.6341 19.1049L5.32614 3.79688C5.14561 3.61635 4.85291 3.61635 4.67238 3.79688C4.49185 3.97741 4.49185 4.27011 4.67238 4.45064L19.9804 19.7586C20.1609 19.9392 20.4536 19.9392 20.6341 19.7586Z" fill="#677185"/>
</svg>
