<svg width="22" height="22" viewBox="0 0 22 22" fill="none" xmlns="http://www.w3.org/2000/svg">
<path d="M13.6975 20.2436L13.7084 20.2513C14.6526 20.8524 15.7736 21.1135 16.8862 20.9913C17.9988 20.8691 19.0365 20.371 19.8276 19.5792L20.515 18.8919C20.6673 18.7397 20.7881 18.559 20.8705 18.36C20.953 18.1611 20.9954 17.9479 20.9954 17.7325C20.9954 17.5172 20.953 17.304 20.8705 17.1051C20.7881 16.9061 20.6673 16.7254 20.515 16.5732L17.616 13.6764C17.4638 13.5241 17.283 13.4032 17.0841 13.3208C16.8852 13.2384 16.6719 13.1959 16.4566 13.1959C16.2413 13.1959 16.028 13.2384 15.8291 13.3208C15.6302 13.4032 15.4494 13.5241 15.2972 13.6764C14.9899 13.9836 14.573 14.1563 14.1384 14.1563C13.7038 14.1563 13.2869 13.9836 12.9796 13.6764L8.34426 9.03996C8.03698 8.73259 7.86436 8.31576 7.86436 7.88113C7.86436 7.44651 8.03698 7.02968 8.34426 6.7223C8.49657 6.57009 8.6174 6.38935 8.69984 6.19042C8.78228 5.99149 8.82471 5.77826 8.82471 5.56293C8.82471 5.34759 8.78228 5.13437 8.69984 4.93544C8.6174 4.73651 8.49657 4.55577 8.34426 4.40355L5.44637 1.50676C5.139 1.19948 4.72216 1.02686 4.28754 1.02686C3.85291 1.02686 3.43608 1.19948 3.12871 1.50676L2.4403 2.19408C1.64872 2.9854 1.1508 4.0231 1.02881 5.13571C0.906822 6.24832 1.16806 7.36926 1.76937 8.3133L1.77592 8.32423C4.95157 13.0227 8.99845 17.0688 13.6975 20.2436V20.2436Z" stroke="#1678F2" stroke-width="1.67948" stroke-linecap="round" stroke-linejoin="round"/>
</svg>
