<svg width="164" height="24" viewBox="0 0 164 24" fill="none" xmlns="http://www.w3.org/2000/svg">
<path d="M8.77337 22.3516V12.5019H12.2459L12.7658 8.66327H8.77327V6.21246C8.77327 5.10108 9.09738 4.34374 10.7714 4.34374L12.9064 4.34279V0.90954C12.5371 0.862844 11.2697 0.758301 9.79536 0.758301C6.71708 0.758301 4.60964 2.54716 4.60964 5.83241V8.66327H1.12817V12.5019H4.60964V22.3516H8.77337V22.3516Z" fill="#1678F2"/>
<path d="M55.035 2.7993V2.79541H56.0474L56.4174 2.8693C56.664 2.91727 56.8879 2.98013 57.0891 3.05791C57.2904 3.13568 57.4851 3.22643 57.6733 3.33012C57.8615 3.43382 58.0322 3.53948 58.1854 3.64706C58.3373 3.75336 58.4736 3.86614 58.5943 3.98539C58.7137 4.10594 58.8999 4.13705 59.1531 4.07872C59.4062 4.02039 59.6788 3.93936 59.9709 3.83567C60.2629 3.73197 60.5518 3.61531 60.8373 3.48568C61.1229 3.35604 61.2968 3.27373 61.3592 3.23874C61.4202 3.20245 61.4526 3.18301 61.4565 3.1804L61.4604 3.17457L61.4799 3.16485L61.4993 3.15513L61.5188 3.1454L61.5383 3.13568L61.5422 3.12985L61.548 3.12596L61.5539 3.12207L61.5577 3.11624L61.5772 3.1104L61.5967 3.10652L61.5928 3.13568L61.5869 3.16485L61.5772 3.19401L61.5675 3.22318L61.5577 3.24262L61.548 3.26207L61.5383 3.29123C61.5318 3.31068 61.5253 3.3366 61.5188 3.36901C61.5123 3.40142 61.4506 3.53104 61.3338 3.75789C61.217 3.98475 61.071 4.21483 60.8957 4.44816C60.7205 4.68149 60.5634 4.85777 60.4245 4.97704C60.2844 5.09759 60.1915 5.18184 60.1461 5.22981C60.1007 5.27906 60.0455 5.32443 59.9806 5.36592L59.8832 5.43009L59.8638 5.43981L59.8443 5.44953L59.8404 5.45536L59.8346 5.45925L59.8287 5.46314L59.8248 5.46897L59.8053 5.4787L59.7859 5.48842L59.782 5.49425L59.7761 5.49814L59.7703 5.50203L59.7664 5.50786L59.7625 5.5137L59.7567 5.51758L59.7508 5.52147L59.7469 5.52731H59.8443L60.3895 5.41064C60.7529 5.33286 61.1002 5.23889 61.4312 5.1287L61.9569 4.95371L62.0153 4.93426L62.0445 4.92454L62.064 4.91482L62.0835 4.90509L62.1029 4.89537L62.1224 4.88565L62.1613 4.87982L62.2003 4.87593V4.91482L62.1905 4.91871L62.1808 4.92454L62.1769 4.93037L62.1711 4.93426L62.1652 4.93815L62.1613 4.94398L62.1575 4.94982L62.1516 4.95371L62.1458 4.95759L62.1419 4.96343L62.138 4.96926L62.1321 4.97315L62.1224 4.99259L62.1127 5.01204L62.1068 5.01593C62.1042 5.01981 62.0218 5.12999 61.8595 5.34648C61.6973 5.56425 61.6097 5.67442 61.5967 5.67703C61.5837 5.68091 61.5655 5.70036 61.5422 5.73536C61.5201 5.77164 61.3825 5.91619 61.1294 6.16896C60.8763 6.42173 60.6283 6.64663 60.3856 6.84367C60.1416 7.042 60.0182 7.28569 60.0157 7.57477C60.0118 7.86254 59.9968 8.18792 59.9709 8.55086C59.9449 8.91383 59.8962 9.30594 59.8248 9.72723C59.7534 10.1485 59.6431 10.6249 59.4938 11.1564C59.3445 11.6878 59.1628 12.2064 58.9486 12.7119C58.7344 13.2174 58.5105 13.6711 58.2769 14.073C58.0432 14.4748 57.829 14.8151 57.6343 15.0938C57.4396 15.3725 57.2417 15.635 57.0405 15.8813C56.8393 16.1276 56.5849 16.405 56.2772 16.7135C55.9683 17.0207 55.7995 17.1892 55.771 17.219C55.7411 17.2476 55.6139 17.3539 55.3893 17.5379C55.1661 17.7233 54.9259 17.9086 54.6689 18.094C54.4132 18.2781 54.1782 18.4317 53.964 18.5549C53.7499 18.678 53.4916 18.8186 53.1891 18.9768C52.888 19.1362 52.5621 19.284 52.2117 19.4201C51.8612 19.5562 51.4912 19.6826 51.1018 19.7993C50.7124 19.9159 50.336 20.0067 49.9725 20.0715C49.609 20.1363 49.1969 20.1914 48.7361 20.2368L48.0449 20.3048V20.3145H46.7792V20.3048L46.6137 20.2951C46.5034 20.2886 46.4125 20.2821 46.3411 20.2757C46.2698 20.2692 46.0004 20.2335 45.5331 20.1687C45.0658 20.1039 44.6991 20.0391 44.433 19.9743C44.1669 19.9095 43.771 19.7863 43.2453 19.6048C42.7195 19.4234 42.2698 19.2399 41.8959 19.0546C41.5234 18.8705 41.2897 18.7538 41.195 18.7046C41.1015 18.6566 40.9964 18.597 40.8795 18.5257L40.7043 18.4187L40.7004 18.4129L40.6946 18.409L40.6887 18.4051L40.6848 18.3993L40.6653 18.3896L40.6459 18.3799L40.642 18.374L40.6361 18.3701L40.6303 18.3662L40.6264 18.3604L40.6225 18.3546L40.6167 18.3507H40.6069V18.3118L40.6264 18.3157L40.6459 18.3215L40.7335 18.3312C40.7919 18.3377 40.9509 18.3474 41.2105 18.3604C41.4702 18.3734 41.746 18.3734 42.0381 18.3604C42.3301 18.3474 42.6287 18.3183 42.9337 18.2729C43.2388 18.2275 43.599 18.1498 44.0144 18.0396C44.4298 17.9294 44.8114 17.7985 45.1593 17.6468C45.5059 17.4939 45.7525 17.3798 45.8992 17.3046C46.0445 17.2307 46.2665 17.0933 46.5651 16.8924L47.0129 16.591L47.0168 16.5852L47.0226 16.5813L47.0285 16.5774L47.0324 16.5716L47.0363 16.5657L47.0421 16.5618L47.048 16.5579L47.0518 16.5521L47.0713 16.5463L47.0908 16.5424L47.0947 16.5229L47.1005 16.5035L47.1064 16.4996L47.1103 16.4938L46.9545 16.4841C46.8506 16.4776 46.75 16.4711 46.6527 16.4646C46.5553 16.4581 46.4028 16.429 46.1951 16.3771C45.9874 16.3253 45.7635 16.2475 45.5234 16.1438C45.2832 16.0401 45.0496 15.9169 44.8224 15.7743C44.5953 15.6318 44.431 15.5131 44.3298 15.4185C44.2298 15.3252 44.1 15.193 43.9404 15.0219C43.782 14.8495 43.6444 14.6725 43.5276 14.491C43.4108 14.3096 43.2991 14.1002 43.1927 13.863L43.0311 13.5091L43.0213 13.4799L43.0116 13.4508L43.0058 13.4313L43.0019 13.4119L43.0311 13.4158L43.0603 13.4216L43.2745 13.4508C43.4173 13.4702 43.6412 13.4767 43.9462 13.4702C44.2513 13.4637 44.4622 13.4508 44.579 13.4313C44.6958 13.4119 44.7672 13.3989 44.7932 13.3924L44.8321 13.3827L44.8808 13.373L44.9295 13.3633L44.9334 13.3574L44.9392 13.3536L44.9451 13.3497L44.949 13.3438L44.91 13.3341L44.8711 13.3244L44.8321 13.3147L44.7932 13.3049L44.7543 13.2952C44.7283 13.2887 44.6829 13.2758 44.618 13.2563C44.5531 13.2369 44.3778 13.1656 44.0922 13.0424C43.8067 12.9193 43.5795 12.7994 43.4108 12.6827C43.2416 12.5657 43.0803 12.4378 42.9279 12.2997C42.776 12.1597 42.6092 11.9795 42.4275 11.7591C42.2457 11.5388 42.0835 11.2828 41.9407 10.9911C41.7979 10.6994 41.6908 10.4207 41.6194 10.155C41.5483 9.89082 41.5014 9.62073 41.4793 9.34807L41.4442 8.93975L41.4637 8.94363L41.4831 8.94947L41.5026 8.95919L41.5221 8.96891L41.5415 8.97863L41.561 8.98836L41.8628 9.12446C42.064 9.21521 42.3139 9.29299 42.6124 9.35779C42.911 9.4226 43.0895 9.45826 43.1479 9.46474L43.2355 9.47446H43.4108L43.4069 9.46863L43.401 9.46474L43.3952 9.46085L43.3913 9.45501L43.3874 9.44918L43.3816 9.44529L43.3757 9.4414L43.3718 9.43557L43.3523 9.42585L43.3329 9.41613L43.329 9.41029L43.3231 9.4064L43.3173 9.40251L43.3134 9.39668L43.2939 9.38696L43.2745 9.37724L43.2706 9.3714C43.2667 9.3688 43.2109 9.32732 43.1031 9.24696C42.9967 9.1653 42.885 9.05966 42.7682 8.93002C42.6514 8.80039 42.5346 8.66428 42.4177 8.5217C42.3007 8.37879 42.1965 8.22589 42.1062 8.06476C42.0153 7.90273 41.9193 7.69661 41.818 7.44644C41.7181 7.19755 41.6421 6.94673 41.5902 6.69395C41.5383 6.44118 41.5091 6.19165 41.5026 5.94535C41.4961 5.69906 41.5026 5.48842 41.5221 5.31342C41.5415 5.13842 41.5805 4.94074 41.6389 4.72038C41.6973 4.50002 41.7817 4.26669 41.892 4.02039L42.0575 3.65095L42.0673 3.62178L42.077 3.59262L42.0829 3.58873L42.0867 3.5829L42.0906 3.57706L42.0965 3.57317L42.1023 3.57706L42.1062 3.5829L42.1101 3.58873L42.1159 3.59262L42.1218 3.59651L42.1257 3.60234L42.1296 3.60817L42.1354 3.61206L42.1451 3.63151L42.1549 3.65095L42.1607 3.65484L42.1646 3.66067L42.4275 3.95233C42.6027 4.14678 42.8104 4.36391 43.0505 4.60371C43.2907 4.84352 43.4237 4.96796 43.4497 4.97704C43.4757 4.9874 43.5081 5.01721 43.5471 5.06648C43.586 5.11445 43.7158 5.22917 43.9365 5.41064C44.1572 5.59211 44.446 5.80277 44.8029 6.04257C45.1599 6.28238 45.5558 6.51895 45.9907 6.75228C46.4255 6.98561 46.8928 7.19625 47.3926 7.38422C47.8923 7.57218 48.2428 7.69532 48.444 7.75366C48.6452 7.81199 48.9892 7.88652 49.476 7.97726C49.9628 8.06801 50.3295 8.12634 50.5761 8.15226C50.8227 8.17818 50.9915 8.19309 51.0823 8.19698L51.2186 8.20087L51.2148 8.1717L51.2089 8.14254L51.17 7.89949C51.144 7.73746 51.131 7.5106 51.131 7.21894C51.131 6.92728 51.1537 6.65831 51.1992 6.41201C51.2446 6.16571 51.3128 5.91619 51.4036 5.66341C51.4945 5.41064 51.5834 5.20776 51.6704 5.05481C51.7586 4.90315 51.8742 4.7301 52.0169 4.53566C52.1597 4.34122 52.3447 4.1403 52.5719 3.93289C52.799 3.72548 53.0586 3.54076 53.3507 3.37873C53.6428 3.21671 53.9121 3.09355 54.1588 3.0093C54.4054 2.92504 54.6131 2.86994 54.7818 2.84402C54.9506 2.8181 55.035 2.80319 55.035 2.7993Z" fill="#1678F2"/>
<path fill-rule="evenodd" clip-rule="evenodd" d="M89.7919 11.5547C89.7919 7.24189 89.7919 5.08547 90.8196 3.53227C91.2785 2.83868 91.8725 2.24469 92.5661 1.78577C94.1193 0.758057 96.2757 0.758057 100.589 0.758057C104.901 0.758057 107.058 0.758057 108.611 1.78577C109.305 2.24469 109.899 2.83868 110.358 3.53227C111.385 5.08547 111.385 7.24189 111.385 11.5547C111.385 15.8676 111.385 18.024 110.358 19.5772C109.899 20.2708 109.305 20.8648 108.611 21.3237C107.058 22.3514 104.901 22.3514 100.589 22.3514C96.2757 22.3514 94.1193 22.3514 92.5661 21.3237C91.8725 20.8648 91.2785 20.2708 90.8196 19.5772C89.7919 18.024 89.7919 15.8676 89.7919 11.5547ZM106.178 11.5549C106.178 14.6419 103.675 17.1445 100.588 17.1445C97.5013 17.1445 94.9987 14.6419 94.9987 11.5549C94.9987 8.46787 97.5013 5.96533 100.588 5.96533C103.675 5.96533 106.178 8.46787 106.178 11.5549ZM100.588 15.2534C102.631 15.2534 104.287 13.5975 104.287 11.5549C104.287 9.51229 102.631 7.85644 100.588 7.85644C98.5457 7.85644 96.8898 9.51229 96.8898 11.5549C96.8898 13.5975 98.5457 15.2534 100.588 15.2534ZM106.399 6.99788C107.124 6.99788 107.712 6.40986 107.712 5.68449C107.712 4.95913 107.124 4.37111 106.399 4.37111C105.673 4.37111 105.085 4.95913 105.085 5.68449C105.085 6.40986 105.673 6.99788 106.399 6.99788Z" fill="#F21616"/>
<path d="M151.499 19.9281L146.626 19.837C145.048 19.8053 143.467 19.8687 141.92 19.5399C139.567 19.0486 139.4 16.6399 139.225 14.6194C138.985 11.7788 139.078 8.88676 139.532 6.06994C139.788 4.48941 140.795 3.54629 142.354 3.44366C147.615 3.07121 152.91 3.11535 158.16 3.28911C158.714 3.30504 159.272 3.3921 159.819 3.49121C162.517 3.97456 162.583 6.70419 162.758 9.00204C162.932 11.3236 162.859 13.6571 162.525 15.9628C162.258 17.8719 161.746 19.4729 159.586 19.6274C156.88 19.8295 154.236 19.9922 151.522 19.9404C151.523 19.9281 151.507 19.9281 151.499 19.9281ZM148.634 15.0948C150.674 13.8983 152.674 12.7217 154.702 11.5332C152.658 10.3367 150.662 9.16011 148.634 7.97161V15.0948Z" fill="#F21616"/>
</svg>
